<svg width="100" height="30" viewBox="0 0 195 42" fill="none" xmlns="http://www.w3.org/2000/svg">
<path d="M16.3448 1.4C20.4104 1.4 23.9128 2.2448 26.852 3.9344C29.7912 5.624 32.044 7.9648 33.6104 10.9568C35.1944 13.9312 35.9864 17.3456 35.9864 21.2C35.9864 24.0864 35.5112 26.744 34.5608 29.1728C33.628 31.584 32.2904 33.6784 30.548 35.456C28.8232 37.216 26.7552 38.58 24.344 39.548C21.9328 40.516 19.2664 41 16.3448 41H0.2936V40.1552H5.0456V2.2448H0.2936V1.4H16.3448ZM11.9624 40.1552H16.3448C18.5272 40.1552 20.3664 39.6536 21.8624 38.6504C23.3584 37.6296 24.5552 36.2392 25.4528 34.4792C26.3504 32.7016 27.0016 30.6776 27.4064 28.4072C27.8112 26.1192 28.0136 23.7168 28.0136 21.2C28.0136 18.6832 27.7848 16.2896 27.3272 14.0192C26.8872 11.7312 26.192 9.7072 25.2416 7.9472C24.3088 6.1696 23.1032 4.7792 21.6248 3.776C20.164 2.7552 18.404 2.2448 16.3448 2.2448H11.9624V40.1552ZM56.5017 41.528C53.7385 41.528 51.2745 41.0088 49.1097 39.9704C46.9449 38.932 45.1057 37.4888 43.5921 35.6408C42.0785 33.7928 40.9257 31.6368 40.1337 29.1728C39.3593 26.7088 38.9721 24.0512 38.9721 21.2C38.9721 18.3488 39.3857 15.6912 40.2129 13.2272C41.0401 10.7632 42.2281 8.6072 43.7769 6.7592C45.3257 4.9112 47.1737 3.468 49.3209 2.4296C51.4681 1.3912 53.8617 0.871998 56.5017 0.871998C59.1241 0.871998 61.5089 1.3912 63.6561 2.4296C65.8033 3.468 67.6513 4.9112 69.2001 6.7592C70.7489 8.6072 71.9369 10.7632 72.7641 13.2272C73.5913 15.6912 74.0049 18.3488 74.0049 21.2C74.0049 24.0512 73.6089 26.7088 72.8169 29.1728C72.0425 31.6368 70.8985 33.8016 69.3849 35.6672C67.8713 37.5152 66.0321 38.9584 63.8673 39.9968C61.7025 41.0176 59.2473 41.528 56.5017 41.528ZM56.5017 40.736C58.5081 40.736 60.1361 40.2168 61.3857 39.1784C62.6529 38.1224 63.6209 36.688 64.2897 34.8752C64.9585 33.0448 65.4161 30.9592 65.6625 28.6184C65.9265 26.26 66.0585 23.7872 66.0585 21.2C66.0585 18.5952 65.9089 16.1224 65.6097 13.7816C65.3105 11.4408 64.8001 9.364 64.0785 7.5512C63.3745 5.7208 62.4065 4.2864 61.1745 3.248C59.9425 2.192 58.3849 1.664 56.5017 1.664C54.6185 1.664 53.0521 2.192 51.8025 3.248C50.5705 4.2864 49.5937 5.7208 48.8721 7.5512C48.1681 9.364 47.6665 11.4408 47.3673 13.7816C47.0681 16.1224 46.9185 18.5952 46.9185 21.2C46.9185 23.7872 47.0417 26.26 47.2881 28.6184C47.5345 30.9768 47.9921 33.0624 48.6609 34.8752C49.3473 36.688 50.3153 38.1224 51.5649 39.1784C52.8321 40.2168 54.4777 40.736 56.5017 40.736ZM114.647 1.4V2.2448H109.974L95.8505 41.7656H93.3425L79.6145 2.2448H75.6545V1.4H93.1841V2.2448H87.6401L97.8305 33.6872L109.024 2.2448H102.582V1.4H114.647ZM115.026 41V40.1552H120.834V2.2448H115.026V1.4H134.087V2.2448H127.751V40.1552H134.087V41H115.026ZM134.519 41V40.1552H139.271V2.2448H134.519V1.4H150.94V2.2448H146.188V40.1552H152.603C154.592 40.1552 156.255 39.9 157.593 39.3896C158.93 38.8616 160.004 38.1136 160.813 37.1456C161.623 36.1776 162.221 35.016 162.609 33.6608C163.013 32.3056 163.277 30.792 163.401 29.12H164.245V41H134.519ZM164.891 41V40.1552H169.643V2.2448H164.891V1.4H194.275V12.224H193.43C193.271 10.3408 192.814 8.6424 192.057 7.1288C191.318 5.6152 190.253 4.4272 188.863 3.5648C187.49 2.6848 185.774 2.2448 183.715 2.2448H176.56V40.1552H183.16C185.571 40.1552 187.543 39.7064 189.074 38.8088C190.605 37.8936 191.758 36.6088 192.532 34.9544C193.324 33.3 193.799 31.3552 193.958 29.12H194.803V41H164.891ZM184.929 26.7704C184.771 25.5912 184.392 24.5704 183.794 23.708C183.213 22.828 182.483 22.1504 181.603 21.6752C180.74 21.1824 179.816 20.936 178.831 20.936H175.082V20.1176H178.831C179.816 20.1176 180.74 19.8976 181.603 19.4576C182.483 19 183.213 18.3576 183.794 17.5304C184.392 16.6856 184.771 15.6736 184.929 14.4944H185.774V26.7704H184.929Z" fill="#454545"/>
</svg>
