<svg width="146" height="26" viewBox="0 0 146 26" fill="none" xmlns="http://www.w3.org/2000/svg">
<path d="M0.102672 1.2H12.3427V1.948H8.73867V24.252H9.96267C11.8893 24.252 13.4193 23.6627 14.5527 22.484C15.7087 21.3053 16.876 19.492 18.0547 17.044H18.7687L18.1227 25H0.102672V24.252H2.10867V1.948H0.102672V1.2ZM28.1426 17.01H29.1286V14.392C29.1286 12.2387 29.0039 10.7993 28.7546 10.074C28.5279 9.326 28.0746 8.952 27.3946 8.952C26.9866 8.952 26.6126 9.06533 26.2726 9.292C25.9552 9.496 25.7966 9.79067 25.7966 10.176C25.7966 10.5387 25.8646 10.9127 26.0006 11.298H26.8506C27.0319 11.774 27.1226 12.352 27.1226 13.032C27.1226 13.6893 26.8392 14.2673 26.2726 14.766C25.7059 15.242 24.9919 15.48 24.1306 15.48C22.1812 15.48 21.2066 14.5393 21.2066 12.658C21.2066 9.87 23.5752 8.476 28.3126 8.476C31.0099 8.476 32.8686 8.94067 33.8886 9.87C34.9312 10.7767 35.4526 12.454 35.4526 14.902V21.804C35.4526 22.9827 35.7812 23.572 36.4386 23.572C37.2092 23.572 37.6626 22.4047 37.7986 20.07L38.3086 20.104C38.2179 22.0987 37.8439 23.47 37.1866 24.218C36.5292 24.966 35.4526 25.34 33.9566 25.34C31.2366 25.34 29.6726 24.5013 29.2646 22.824C28.9699 23.6853 28.5279 24.32 27.9386 24.728C27.3492 25.136 26.4879 25.34 25.3546 25.34C21.9999 25.34 20.3226 23.9687 20.3226 21.226C20.3226 19.6167 20.9572 18.5173 22.2266 17.928C23.5186 17.316 25.4906 17.01 28.1426 17.01ZM26.7826 21.192C26.7826 22.3707 26.8392 23.13 26.9526 23.47C27.0886 23.81 27.3266 23.98 27.6666 23.98C28.0292 23.98 28.3579 23.6967 28.6526 23.13C28.9699 22.5407 29.1286 21.736 29.1286 20.716V17.554H28.8906C27.4852 17.554 26.7826 18.5853 26.7826 20.648V21.192ZM38.7107 8.816H46.9047V11.944C47.2674 10.9013 47.8227 10.0627 48.5707 9.428C49.3187 8.79333 50.4521 8.476 51.9707 8.476C55.4841 8.476 57.2407 10.3687 57.2407 14.154V24.388H59.1447V25H49.5227V24.388H50.9167V13.338C50.9167 11.978 50.8261 11.1053 50.6447 10.72C50.4634 10.312 50.1347 10.108 49.6587 10.108C48.9334 10.108 48.2874 10.584 47.7207 11.536C47.1767 12.488 46.9047 13.644 46.9047 15.004V24.388H48.3667V25H38.7107V24.388H40.5807V9.428H38.7107V8.816ZM64.5919 6.47C63.3906 6.47 62.5292 6.164 62.0079 5.552C61.5092 4.94 61.2599 4.18067 61.2599 3.274C61.2599 2.36733 61.5319 1.61933 62.0759 1.03C62.6426 0.440666 63.4926 0.146 64.6259 0.146C65.7592 0.146 66.6206 0.418 67.2099 0.961999C67.7992 1.48333 68.0939 2.24267 68.0939 3.24C68.0939 4.21467 67.8106 4.99667 67.2439 5.586C66.6772 6.17533 65.7932 6.47 64.5919 6.47ZM59.4579 8.816H67.7879V24.388H69.6919V25H59.5939V24.388H61.4639V9.428H59.4579V8.816ZM76.8683 1.2H87.4763V1.846H85.5043V12.386H92.2703V1.846H90.2643V1.2H100.906V1.846H98.9003V24.354H100.906V25H90.2643V24.354H92.2703V13.27H85.5043V24.354H87.4763V25H76.8683V24.354H78.8743V1.846H76.8683V1.2ZM110.121 17.01H111.107V14.392C111.107 12.2387 110.982 10.7993 110.733 10.074C110.506 9.326 110.053 8.952 109.373 8.952C108.965 8.952 108.591 9.06533 108.251 9.292C107.934 9.496 107.775 9.79067 107.775 10.176C107.775 10.5387 107.843 10.9127 107.979 11.298H108.829C109.01 11.774 109.101 12.352 109.101 13.032C109.101 13.6893 108.818 14.2673 108.251 14.766C107.684 15.242 106.97 15.48 106.109 15.48C104.16 15.48 103.185 14.5393 103.185 12.658C103.185 9.87 105.554 8.476 110.291 8.476C112.988 8.476 114.847 8.94067 115.867 9.87C116.91 10.7767 117.431 12.454 117.431 14.902V21.804C117.431 22.9827 117.76 23.572 118.417 23.572C119.188 23.572 119.641 22.4047 119.777 20.07L120.287 20.104C120.196 22.0987 119.822 23.47 119.165 24.218C118.508 24.966 117.431 25.34 115.935 25.34C113.215 25.34 111.651 24.5013 111.243 22.824C110.948 23.6853 110.506 24.32 109.917 24.728C109.328 25.136 108.466 25.34 107.333 25.34C103.978 25.34 102.301 23.9687 102.301 21.226C102.301 19.6167 102.936 18.5173 104.205 17.928C105.497 17.316 107.469 17.01 110.121 17.01ZM108.761 21.192C108.761 22.3707 108.818 23.13 108.931 23.47C109.067 23.81 109.305 23.98 109.645 23.98C110.008 23.98 110.336 23.6967 110.631 23.13C110.948 22.5407 111.107 21.736 111.107 20.716V17.554H110.869C109.464 17.554 108.761 18.5853 108.761 20.648V21.192ZM130.224 9.428V8.816H138.996V9.428H137.602L140.662 20.886L143.688 9.428H141.342V8.816H145.932V9.428H144.504L140.424 25H135.766L132.808 14.562L129.612 25H125.056L120.024 9.428H118.494V8.816H128.796V9.428H126.756L129.884 20.988L132.332 13.032L131.482 9.428H130.224Z" fill="#525252"/>
</svg>
