<svg width="139" height="25" viewBox="0 0 139 25" fill="none" xmlns="http://www.w3.org/2000/svg">
<path d="M7.73572 2.58C9.29972 2.58 10.7391 2.79533 12.0537 3.226C13.3684 3.65667 14.5017 4.30267 15.4537 5.164C16.4057 6.00267 17.1424 7.068 17.6637 8.36C18.2077 9.62933 18.4797 11.114 18.4797 12.814C18.4797 14.8313 18.1624 16.554 17.5277 17.982C16.8931 19.3873 16.0317 20.5433 14.9437 21.45C13.8784 22.334 12.6204 22.98 11.1697 23.388C9.74172 23.796 8.23439 24 6.64772 24H0.595719V2.58H7.73572ZM4.23372 21.076H6.34172C7.38439 21.076 8.39305 20.9627 9.36772 20.736C10.3651 20.4867 11.2491 20.056 12.0197 19.444C12.7904 18.8093 13.4024 17.9593 13.8557 16.894C14.3317 15.8287 14.5697 14.4687 14.5697 12.814C14.5697 10.4567 13.8897 8.65467 12.5297 7.408C11.1924 6.13867 9.39039 5.504 7.12372 5.504H4.23372V21.076ZM36.1082 16.588H24.8542V16.724C24.8542 18.356 25.3302 19.5913 26.2822 20.43C27.2342 21.2687 28.4922 21.688 30.0562 21.688C30.9175 21.688 31.6882 21.62 32.3682 21.484C33.0709 21.3253 33.7735 21.0873 34.4762 20.77L35.1562 23.32C34.4989 23.6147 33.7169 23.8527 32.8102 24.034C31.9035 24.238 30.9062 24.34 29.8182 24.34C28.6622 24.34 27.5629 24.1813 26.5202 23.864C25.4775 23.5467 24.5595 23.048 23.7662 22.368C22.9955 21.688 22.3835 20.8267 21.9302 19.784C21.4769 18.7413 21.2502 17.4947 21.2502 16.044C21.2502 14.7973 21.4315 13.664 21.7942 12.644C22.1795 11.6013 22.7122 10.7173 23.3922 9.992C24.0949 9.244 24.9335 8.67733 25.9082 8.292C26.9055 7.884 28.0049 7.68 29.2062 7.68C30.2489 7.68 31.1895 7.85 32.0282 8.19C32.8895 8.53 33.6149 9.01733 34.2042 9.652C34.8162 10.264 35.2809 11.0233 35.5982 11.93C35.9382 12.814 36.1082 13.8 36.1082 14.888V16.588ZM32.5042 14.14C32.5042 13.596 32.4362 13.086 32.3002 12.61C32.1642 12.134 31.9602 11.726 31.6882 11.386C31.4162 11.0233 31.0535 10.74 30.6002 10.536C30.1695 10.3093 29.6482 10.196 29.0362 10.196C27.9029 10.196 26.9735 10.5587 26.2482 11.284C25.5455 12.0093 25.1149 12.984 24.9562 14.208L32.5042 14.14ZM54.529 15.806C54.529 17.1433 54.3137 18.3447 53.883 19.41C53.475 20.4753 52.9083 21.3707 52.183 22.096C51.4577 22.8213 50.6077 23.3767 49.633 23.762C48.6583 24.1473 47.6043 24.34 46.471 24.34C45.3377 24.34 44.2837 24.1587 43.309 23.796C42.357 23.4333 41.5183 22.912 40.793 22.232C40.0903 21.5293 39.535 20.668 39.127 19.648C38.7417 18.628 38.549 17.4607 38.549 16.146C38.549 14.786 38.753 13.5847 39.161 12.542C39.5917 11.4993 40.1697 10.6153 40.895 9.89C41.6203 9.16467 42.4703 8.62067 43.445 8.258C44.4197 7.87267 45.4737 7.68 46.607 7.68C47.7403 7.68 48.783 7.86133 49.735 8.224C50.7097 8.564 51.5483 9.074 52.251 9.754C52.9764 10.434 53.5317 11.284 53.917 12.304C54.325 13.324 54.529 14.4913 54.529 15.806ZM50.891 15.976C50.891 14.956 50.7663 14.0947 50.517 13.392C50.2677 12.6667 49.939 12.0773 49.531 11.624C49.123 11.1707 48.6583 10.842 48.137 10.638C47.6157 10.434 47.0717 10.332 46.505 10.332C45.961 10.332 45.4283 10.4227 44.907 10.604C44.3857 10.7853 43.921 11.0913 43.513 11.522C43.105 11.9527 42.7763 12.5307 42.527 13.256C42.3003 13.9813 42.187 14.888 42.187 15.976C42.187 16.9733 42.3117 17.8347 42.561 18.56C42.8103 19.2853 43.139 19.886 43.547 20.362C43.955 20.8153 44.4197 21.1553 44.941 21.382C45.485 21.586 46.029 21.688 46.573 21.688C47.117 21.688 47.6497 21.5973 48.171 21.416C48.6923 21.2347 49.157 20.9287 49.565 20.498C49.973 20.0447 50.2903 19.4553 50.517 18.73C50.7663 17.982 50.891 17.064 50.891 15.976ZM61.5304 24H58.0284V7.952H60.7824L61.2584 10.094C62.0517 9.32333 62.879 8.734 63.7404 8.326C64.6244 7.89533 65.6217 7.68 66.7324 7.68C68.4324 7.68 69.747 8.14467 70.6764 9.074C71.6057 10.0033 72.0704 11.3293 72.0704 13.052V24H68.5684V13.494C68.5684 12.5647 68.3304 11.828 67.8544 11.284C67.3784 10.74 66.6644 10.468 65.7124 10.468C64.987 10.468 64.2617 10.6493 63.5364 11.012C62.8337 11.352 62.165 11.8507 61.5304 12.508V24ZM97.4864 2.58V5.504H88.2044V12.032H96.7384V14.922H88.2044V24H84.5664V2.58H97.4864ZM100.703 24V7.952H104.205V24H100.703ZM102.471 3.974C101.859 3.974 101.372 3.79267 101.009 3.43C100.646 3.04467 100.465 2.56867 100.465 2.002C100.465 1.43533 100.646 0.970665 101.009 0.607999C101.372 0.222665 101.859 0.0299985 102.471 0.0299985C103.06 0.0299985 103.536 0.222665 103.899 0.607999C104.284 0.970665 104.477 1.43533 104.477 2.002C104.477 2.59133 104.284 3.06733 103.899 3.43C103.536 3.79267 103.06 3.974 102.471 3.974ZM118.956 7.952H122.662L116.78 24H113.108L107.226 7.952H111L114.196 17.948L114.91 21.28H115.046L115.76 17.982L118.956 7.952ZM138.805 16.588H127.551V16.724C127.551 18.356 128.027 19.5913 128.979 20.43C129.931 21.2687 131.189 21.688 132.753 21.688C133.615 21.688 134.385 21.62 135.065 21.484C135.768 21.3253 136.471 21.0873 137.173 20.77L137.853 23.32C137.196 23.6147 136.414 23.8527 135.507 24.034C134.601 24.238 133.603 24.34 132.515 24.34C131.359 24.34 130.26 24.1813 129.217 23.864C128.175 23.5467 127.257 23.048 126.463 22.368C125.693 21.688 125.081 20.8267 124.627 19.784C124.174 18.7413 123.947 17.4947 123.947 16.044C123.947 14.7973 124.129 13.664 124.491 12.644C124.877 11.6013 125.409 10.7173 126.089 9.992C126.792 9.244 127.631 8.67733 128.605 8.292C129.603 7.884 130.702 7.68 131.903 7.68C132.946 7.68 133.887 7.85 134.725 8.19C135.587 8.53 136.312 9.01733 136.901 9.652C137.513 10.264 137.978 11.0233 138.295 11.93C138.635 12.814 138.805 13.8 138.805 14.888V16.588ZM135.201 14.14C135.201 13.596 135.133 13.086 134.997 12.61C134.861 12.134 134.657 11.726 134.385 11.386C134.113 11.0233 133.751 10.74 133.297 10.536C132.867 10.3093 132.345 10.196 131.733 10.196C130.6 10.196 129.671 10.5587 128.945 11.284C128.243 12.0093 127.812 12.984 127.653 14.208L135.201 14.14Z" fill="#454545"/>
</svg>
