<svg width="205" height="26" viewBox="0 0 205 26" fill="none" xmlns="http://www.w3.org/2000/svg">
<path d="M9.63263 15.65L6.43663 18.982V25H0.962625V1.2H6.43663V12.318L16.9766 1.2H23.0966L13.2366 11.808L23.6746 25H17.2486L9.63263 15.65ZM47.9586 1.2V25H43.4366L31.5706 10.55V25H26.1306V1.2H30.6866L42.5186 15.65V1.2H47.9586ZM65.1156 25.408C62.6449 25.408 60.4122 24.8753 58.4176 23.81C56.4456 22.7447 54.8929 21.2827 53.7596 19.424C52.6489 17.5427 52.0936 15.4347 52.0936 13.1C52.0936 10.7653 52.6489 8.66867 53.7596 6.81C54.8929 4.92867 56.4456 3.45533 58.4176 2.39C60.4122 1.32467 62.6449 0.792 65.1156 0.792C67.5862 0.792 69.8076 1.32467 71.7796 2.39C73.7516 3.45533 75.3042 4.92867 76.4376 6.81C77.5709 8.66867 78.1376 10.7653 78.1376 13.1C78.1376 15.4347 77.5709 17.5427 76.4376 19.424C75.3042 21.2827 73.7516 22.7447 71.7796 23.81C69.8076 24.8753 67.5862 25.408 65.1156 25.408ZM65.1156 20.716C66.5209 20.716 67.7902 20.3987 68.9236 19.764C70.0569 19.1067 70.9409 18.2 71.5756 17.044C72.2329 15.888 72.5616 14.5733 72.5616 13.1C72.5616 11.6267 72.2329 10.312 71.5756 9.156C70.9409 8 70.0569 7.10467 68.9236 6.47C67.7902 5.81267 66.5209 5.484 65.1156 5.484C63.7102 5.484 62.4409 5.81267 61.3076 6.47C60.1742 7.10467 59.2789 8 58.6216 9.156C57.9869 10.312 57.6696 11.6267 57.6696 13.1C57.6696 14.5733 57.9869 15.888 58.6216 17.044C59.2789 18.2 60.1742 19.1067 61.3076 19.764C62.4409 20.3987 63.7102 20.716 65.1156 20.716ZM96.4078 25L90.6618 16.738L85.0178 25H78.6938L87.4998 12.896L79.1358 1.2H85.3918L90.8658 8.918L96.2378 1.2H102.188L93.8918 12.692L102.766 25H96.4078ZM123.35 20.58V25H104.922V1.2H122.908V5.62H110.396V10.788H121.446V15.072H110.396V20.58H123.35ZM149.39 25L149.356 10.72L142.352 22.484H139.87L132.9 11.026V25H127.732V1.2H132.288L141.196 15.99L149.968 1.2H154.49L154.558 25H149.39ZM170.779 25.408C167.379 25.408 164.727 24.4673 162.823 22.586C160.941 20.7047 160.001 18.0187 160.001 14.528V1.2H165.509V14.324C165.509 18.5853 167.277 20.716 170.813 20.716C172.535 20.716 173.85 20.206 174.757 19.186C175.663 18.1433 176.117 16.5227 176.117 14.324V1.2H181.557V14.528C181.557 18.0187 180.605 20.7047 178.701 22.586C176.819 24.4673 174.179 25.408 170.779 25.408ZM194.82 25.408C192.938 25.408 191.114 25.1587 189.346 24.66C187.6 24.1387 186.195 23.47 185.13 22.654L187 18.506C188.02 19.254 189.232 19.8547 190.638 20.308C192.043 20.7613 193.448 20.988 194.854 20.988C196.418 20.988 197.574 20.7613 198.322 20.308C199.07 19.832 199.444 19.2087 199.444 18.438C199.444 17.8713 199.217 17.4067 198.764 17.044C198.333 16.6587 197.766 16.3527 197.064 16.126C196.384 15.8993 195.454 15.65 194.276 15.378C192.462 14.9473 190.978 14.5167 189.822 14.086C188.666 13.6553 187.668 12.964 186.83 12.012C186.014 11.06 185.606 9.79067 185.606 8.204C185.606 6.82133 185.98 5.57467 186.728 4.464C187.476 3.33067 188.598 2.43533 190.094 1.778C191.612 1.12067 193.46 0.792 195.636 0.792C197.154 0.792 198.639 0.973333 200.09 1.336C201.54 1.69867 202.81 2.22 203.898 2.9L202.198 7.082C199.999 5.83533 197.8 5.212 195.602 5.212C194.06 5.212 192.916 5.46133 192.168 5.96C191.442 6.45867 191.08 7.116 191.08 7.932C191.08 8.748 191.499 9.36 192.338 9.768C193.199 10.1533 194.502 10.5387 196.248 10.924C198.061 11.3547 199.546 11.7853 200.702 12.216C201.858 12.6467 202.844 13.3267 203.66 14.256C204.498 15.1853 204.918 16.4433 204.918 18.03C204.918 19.39 204.532 20.6367 203.762 21.77C203.014 22.8807 201.88 23.7647 200.362 24.422C198.843 25.0793 196.996 25.408 194.82 25.408Z" fill="#525252"/>
</svg>
